<?xml version="1.0" encoding="UTF-8"?>
<svg id="Calque_1" data-name="Calque 1" xmlns="http://www.w3.org/2000/svg" viewBox="0 0 499.23 156.65">
  <defs>
    <style>
      .cls-1 {
        fill: #c6102e;
      }

      .cls-2 {
        fill: #f2a22f;
      }
    </style>
  </defs>
  <path class="cls-1" d="M71.99,14.98H0v141.67h69.76c38.93,0,70.5-31.56,70.5-70.5v-2.91c0-37.7-30.56-68.27-68.27-68.27ZM92.28,91.76c0,15.88-12.88,28.76-28.76,28.76h-16.67V51.38h16.05c16.23,0,29.39,13.16,29.39,29.39v10.99Z"/>
  <path class="cls-1" d="M281.81,109.03c-3.25-24.16-27.21-27.41-27.21-27.41,0,0,22.74-7.31,23.55-29.44,1.83-34.72-46.7-37.2-46.7-37.2h-81.01v141.67h83.86c35.13,0,50.76-23.45,47.51-47.61ZM197.12,49.53h24.65c5.14,0,9.31,4.17,9.31,9.31v1.59c0,4.9-3.97,8.87-8.87,8.87h-25.09v-19.77ZM235.08,112.45c0,5.39-4.37,9.76-9.76,9.76h-28.66v-21.14h27.45c6.06,0,10.97,4.91,10.97,10.97v.4Z"/>
  <g>
    <path class="cls-2" d="M350.43,0l-1.83,10.15s-52.79,56.85-1.22,102.13c0,0-48.93,3.05-46.09-47.31,0,0,3.45-36.75,49.14-64.97Z"/>
    <path class="cls-2" d="M294.4,79.19s5.69,61.56,84.67,36.06c0,0,33.19-9.55,75.42-51.37l-11.34-12.68s38.53-7.5,55.32-11.79l-14.42,57.24-12.63-14.02-16.55,16.25s-40.6,39.07-81.35,46.32c-40.74,7.26-86.09-9.63-79.13-66.02Z"/>
    <path class="cls-2" d="M453.52,81.55l-6.48-10.55c-38.63,35.8-67.98,44.25-67.98,44.25-78.98,25.5-84.67-36.06-84.67-36.06-.19,1.53-.33,3.02-.44,4.49,2.74,15.84,15.72,56.51,76.58,46.77,4.47-.72,8.87-1.82,13.16-3.28,14.41-4.9,48.89-18.84,69.83-45.61Z"/>
    <polygon class="cls-2" points="443.35 51.45 499.23 39.41 483.99 96.98 443.35 51.45"/>
    <path class="cls-2" d="M321.85,32.81s-32.62,57.9,25.54,79.47c0,0-47.39,3.1-46.21-42.98,0,0-1.73-20.74,22.2-47.12l-1.52,10.64Z"/>
  </g>
</svg>