<?xml version="1.0" encoding="UTF-8"?>
<svg id="Layer_1" xmlns="http://www.w3.org/2000/svg" version="1.1" viewBox="0 0 449.92 327.23">
  <!-- Generator: Adobe Illustrator 30.3.0, SVG Export Plug-In . SVG Version: 2.1.3 Build 182)  -->
  <defs>
    <style>
      .st0 {
        fill: #c6102e;
      }

      .st1 {
        fill: #f2a22f;
      }
    </style>
  </defs>
  <g>
    <path class="st1" d="M150.28,93.15l-2.91,16.2s-84.16,90.65-1.92,162.86c0,0-78.03,4.87-73.5-75.44,0,0,5.51-58.61,78.35-103.59v-.03h-.02Z"/>
    <path class="st1" d="M60.89,219.43s9.07,98.17,135,57.52c0,0,52.94-15.21,120.28-81.92l-18.09-20.23s61.44-11.95,88.2-18.79l-22.99,91.29-20.14-22.36-26.39,25.9s-64.75,62.29-129.73,73.85c-64.98,11.59-137.27-15.35-126.18-105.26h.06-.02Z"/>
    <path class="st1" d="M314.63,223.19l-10.31-16.83c-61.61,57.08-108.41,70.57-108.41,70.57-125.95,40.66-135-57.52-135-57.52-.29,2.44-.52,4.82-.72,7.18,4.38,25.24,25.07,90.11,122.12,74.57,7.12-1.15,14.14-2.91,20.97-5.21,22.97-7.81,77.94-30.06,111.34-72.73v-.03h.01Z"/>
    <polygon class="st1" points="298.41 175.2 387.53 156 363.22 247.8 298.41 175.2"/>
    <path class="st1" d="M104.69,145.49s-52.01,92.32,40.72,126.72c0,0-75.58,4.96-73.69-68.52,0,0-2.77-33.08,35.38-75.15l-2.42,16.97v-.03h0Z"/>
  </g>
  <path class="st0" d="M449.35,149.98c-5.18-38.53-43.39-43.71-43.39-43.71,0,0,36.25-11.64,37.55-46.94C446.41,3.98,369.05,0,369.05,0h-129.18v225.9h34.83l3.57-2.8c1.73-1.42,3.54-2.91,5.34-4.44l2.33-1.95c1.15-.98,2.33-1.92,3.51-2.96,1.87-1.62,3.78-3.34,5.7-5.07l3.02-2.71c.96-.83,1.9-1.67,2.88-2.6,2.96-2.74,5.97-5.59,8.99-8.53l-20.06-22.45h0l-.03-.03,7.23-1.87s6.63-1.29,16.34-3.23v-29.93h43.77c9.48,0,17.15,7.54,17.43,16.94l.77-.17c3.46-.8,6.77-1.62,9.65-2.33l7.15-1.81-.14.58,1.38-.29-20.03,75.69h0c56.02,0,80.95-37.4,75.75-75.93l.06-.03h.04ZM368.46,72.49c0,7.81-6.33,14.14-14.14,14.14h-40.02v-31.52h39.3c8.19,0,14.83,6.66,14.83,14.83v2.54h.03Z"/>
  <path class="st0" d="M114.8,0H0v225.9h55.85c.17-2.3.41-4.64.69-7.01l4.93-39.88,3.83,39.99s.32,2.77,1.29,6.88h3.09c-1.07-4.61-1.76-9.48-2.02-14.66l-.14-2.77c-.11-1.53-.2-3.05-.17-4.72-.03-.72-.11-3.02.2-6.6v-.9s.2-1.67.72-4.38c1.07-6.36,3.26-14.41,7.21-23.57h-.77V58.04h25.59c21.15,0,38.81,14.12,44.67,33.37,1.01-.66,1.95-1.35,3.02-1.99l8.39-5.18-4.9,27.18-.87.96s-1.38,1.53-3.43,4.03v6.05c0,18.58-11.1,34.53-27,41.73-4.24,12.08-7.01,25.47-6.28,39.39.41,7.58,1.9,14.9,4.3,22.01,58.84-3.6,105.49-52.32,105.49-112.06v-4.64C223.67,48.78,174.94.03,114.81.03v-.03s-.01,0,0,0Z"/>
</svg>